<svg id="Calque_1" data-name="Calque 1" xmlns="http://www.w3.org/2000/svg" viewBox="0 0 145.33 44.67"><defs><style>.cls-1,.cls-2{fill:#fff;}.cls-2{stroke:#fff;stroke-linecap:round;stroke-linejoin:bevel;stroke-width:0.5px;}</style></defs><path class="cls-1" d="M105.23,46.91a10.82,10.82,0,1,1,10.71-10.82A10.78,10.78,0,0,1,105.23,46.91Zm0-18.64a7.82,7.82,0,1,0,7.71,7.82A7.77,7.77,0,0,0,105.23,28.27Z" transform="translate(-2.75 -2.24)"/><path class="cls-1" d="M137.37,46.91a10.82,10.82,0,1,1,10.71-10.82A10.78,10.78,0,0,1,137.37,46.91Zm0-18.64a7.82,7.82,0,1,0,7.71,7.82A7.78,7.78,0,0,0,137.37,28.27Z" transform="translate(-2.75 -2.24)"/><path class="cls-1" d="M123,39.64a1.51,1.51,0,0,1-1-.35l-4.17-3.5a1.49,1.49,0,0,1-.53-1,1.53,1.53,0,0,1,.36-1.1l4.58-5.33-9.74-7.71a1.5,1.5,0,0,1,.08-2.41L124,10.36a1.5,1.5,0,0,1,1.95.21l6.36,6.88,6.45.72.85-1.37a1.5,1.5,0,1,1,2.54,1.59l-1.35,2.17a1.5,1.5,0,0,1-1.44.7l-7.94-.89a1.44,1.44,0,0,1-.93-.47l-5.86-6.34-8.66,6L125.34,27a1.49,1.49,0,0,1,.21,2.16l-4.61,5.36L124,37a1.49,1.49,0,0,1,.18,2.11A1.47,1.47,0,0,1,123,39.64Z" transform="translate(-2.75 -2.24)"/><ellipse class="cls-1" cx="130.53" cy="5.41" rx="4.85" ry="4.91"/><path class="cls-2" d="M3,19.44c.15-1.72.26-3.13.32-4.23s.13-3,.22-5.63.13-4.48.13-5.47c0-.3,0-.74,0-1.33l2.55,0c.68,0,1.52,0,2.53,0s1.82,0,2.47,0a13.06,13.06,0,0,1,2.06.12,5.24,5.24,0,0,1,1.23.35,3.2,3.2,0,0,1,.9.56,3.59,3.59,0,0,1,.63.8,3.93,3.93,0,0,1,.39,1,4.84,4.84,0,0,1,.13,1.08,5,5,0,0,1-.17,1.3A4.26,4.26,0,0,1,15.91,9a3.51,3.51,0,0,1-.73.84,4.64,4.64,0,0,1-.79.54,8.67,8.67,0,0,1-1,.42,7.36,7.36,0,0,1,.92.24,3.2,3.2,0,0,1,.73.35,3.65,3.65,0,0,1,1.3,1.4,4.51,4.51,0,0,1,.32.92,4.93,4.93,0,0,1-.39,3.2,4,4,0,0,1-1.4,1.55,5.19,5.19,0,0,1-2,.75,34.7,34.7,0,0,1-4.69.19H3Zm3.7-2.38H9.47A10.94,10.94,0,0,0,10.78,17a4.59,4.59,0,0,0,.9-.24,3.14,3.14,0,0,0,.67-.37,2.13,2.13,0,0,0,.43-.5,2.67,2.67,0,0,0,.3-.69,3.09,3.09,0,0,0,.11-.8,2.41,2.41,0,0,0-.2-1,2.05,2.05,0,0,0-.58-.74,2.41,2.41,0,0,0-.89-.45A6.64,6.64,0,0,0,10,12.07H6.88ZM7,9.69H9a15.09,15.09,0,0,0,1.69-.06,4.24,4.24,0,0,0,.91-.24,2,2,0,0,0,.8-.55A2.36,2.36,0,0,0,12.83,8,2.8,2.8,0,0,0,13,7.11a2.22,2.22,0,0,0-.16-.85,1.6,1.6,0,0,0-.51-.67,2.06,2.06,0,0,0-.82-.37,6.22,6.22,0,0,0-1.41-.12H7.16Z" transform="translate(-2.75 -2.24)"/><path class="cls-2" d="M18.29,19.44c.2-2.8.35-5.67.48-8.61S19,5.64,19,4.09V2.78l2,0,1.87,0q-.51,6.42-.64,16.66l-1.79,0Z" transform="translate(-2.75 -2.24)"/><path class="cls-2" d="M24.57,19.44c.13-1.59.24-3,.3-4.12q.15-2.48.33-7c.08-2.07.12-3.53.12-4.39V2.78l2,0,1.88,0-.38,6.59-.33,7.9,0,2.17-1.89,0ZM29,10.62l2.77-3.4L34.3,4c.17-.23.48-.64.9-1.23l2.2,0,2.09,0-5.62,6.6-.95,1.18.77,1.1c.12.16.92,1.22,2.42,3.18l3.56,4.6-2.18,0-2.37,0-.79-1.22c-.14-.23-.4-.62-.78-1.16l-3.32-4.74Z" transform="translate(-2.75 -2.24)"/><path class="cls-2" d="M40.28,19.44l.35-4.67.26-5.41.16-4.92V2.78q3,0,6.28,0l2.35,0H53.2l-.14,2.64L51.9,5.36c-.32,0-.76,0-1.32,0H46.4l-1.68.05-.2,4.33c1.12,0,2.24,0,3.37,0,.78,0,2.1,0,4-.08-.07.74-.12,1.63-.17,2.66l-3.74,0c-1,0-2.15,0-3.58.07l-.2,4.57H45.5l2.69,0,2.65,0,1.77-.09c-.09.94-.14,1.84-.17,2.67l-5.73,0H40.28Z" transform="translate(-2.75 -2.24)"/><path class="cls-2" d="M63.26,19.44l.27-3.56.27-5.31L64,5.34h-.86l-.79,0h-.75l-2.82.08c.07-1.17.1-2.06.11-2.67,2.34,0,4.8,0,7.36,0l4.38,0h2.34q-.12,1.74-.12,2.67c-1.47-.07-2.88-.11-4.24-.11h-.94L67.5,7.57l-.35,8.58,0,1.44c0,.59,0,1.21,0,1.85l-1.86,0Z" transform="translate(-2.75 -2.24)"/><path class="cls-2" d="M73.05,19.44l.36-4.67.25-5.41.16-4.92V2.78q3,0,6.29,0l2.34,0H86l-.15,2.64-1.16-.06c-.31,0-.75,0-1.32,0H79.17l-1.68.05L77.3,9.69c1.11,0,2.24,0,3.37,0,.78,0,2.1,0,4-.08-.06.74-.12,1.63-.17,2.66l-3.73,0c-1,0-2.16,0-3.59.07l-.2,4.57h1.35l2.68,0,2.65,0,1.77-.09c-.08.94-.14,1.84-.17,2.67l-5.73,0H73.05Z" transform="translate(-2.75 -2.24)"/><path class="cls-2" d="M86.86,19.09c-.07-1.24-.15-2.25-.26-3A10.61,10.61,0,0,0,91,17.15a4.38,4.38,0,0,0,1.46-.24,2.08,2.08,0,0,0,1-.67,1.61,1.61,0,0,0,.32-1,1.79,1.79,0,0,0-.15-.75,3.68,3.68,0,0,0-.78-.94c-.47-.44-1.3-1.18-2.49-2.21-.57-.49-1-.85-1.18-1.06A8.38,8.38,0,0,1,88,9.06,4.29,4.29,0,0,1,87.44,8a4.1,4.1,0,0,1-.17-1.18,4,4,0,0,1,.64-2.15,4.2,4.2,0,0,1,1.92-1.57,7.9,7.9,0,0,1,3.22-.57A20.35,20.35,0,0,1,97,2.92c0,.84.12,1.81.24,2.9a9.72,9.72,0,0,0-3.51-.73,3.3,3.3,0,0,0-1.95.54A1.53,1.53,0,0,0,91,6.89a1.48,1.48,0,0,0,0,.41,2.14,2.14,0,0,0,.16.42,3.26,3.26,0,0,0,.38.52,5.87,5.87,0,0,0,.79.76c.35.29.65.52.9.7l1.51,1.37q.57.48,1,.93a9.42,9.42,0,0,1,.77.86,4.4,4.4,0,0,1,.51.8,3.71,3.71,0,0,1,.27.77,3.86,3.86,0,0,1,.09.84,4.05,4.05,0,0,1-1.84,3.43,5.6,5.6,0,0,1-2,.81,10.86,10.86,0,0,1-2.25.23,14.42,14.42,0,0,1-1.82-.14Q88.56,19.47,86.86,19.09Z" transform="translate(-2.75 -2.24)"/><path class="cls-2" d="M102.6,19.44l.27-3.56.27-5.31.17-5.23h-.85l-.8,0h-.75l-2.82.08c.07-1.17.1-2.06.11-2.67q3.52,0,7.36,0l4.38,0h2.34q-.12,1.74-.12,2.67c-1.47-.07-2.88-.11-4.23-.11H107l-.15,2.23-.35,8.58,0,1.44c0,.59,0,1.21,0,1.85l-1.85,0Z" transform="translate(-2.75 -2.24)"/><path class="cls-2" d="M36.32,34.1l2.32,0,2.42,0c-.16,2-.26,4.14-.33,6.54-1,.19-1.85.33-2.64.41s-1.45.12-2,.12a11.84,11.84,0,0,1-2.87-.33A5.77,5.77,0,0,1,31,39.79a4.62,4.62,0,0,1-1.4-1.93,6.63,6.63,0,0,1-.48-2.51,6.67,6.67,0,0,1,1.41-4.13,6.25,6.25,0,0,1,1.69-1.46,6.47,6.47,0,0,1,2.1-.8,12.68,12.68,0,0,1,2.35-.21,19.88,19.88,0,0,1,3.92.45c0,.67,0,1.37.1,2.09a12,12,0,0,0-3.75-.69,6.61,6.61,0,0,0-2,.31,4.35,4.35,0,0,0-1.66.95,4.23,4.23,0,0,0-1.06,1.6,5.55,5.55,0,0,0-.37,2,4.69,4.69,0,0,0,.42,2,2.89,2.89,0,0,0,1.4,1.38,5,5,0,0,0,2.26.5,8,8,0,0,0,1.1-.09A8.68,8.68,0,0,0,38.29,39l.14-3.09h-.69l-1.5,0C36.29,35.12,36.32,34.51,36.32,34.1Z" transform="translate(-2.75 -2.24)"/><path class="cls-2" d="M42.35,41q.27-2.61.4-6c.09-2.26.13-4.26.13-6h1.77c.51,0,1,0,1.49,0s1,0,1.56,0a12.53,12.53,0,0,1,1.82.12,3.46,3.46,0,0,1,1.43.52,2.68,2.68,0,0,1,.92,1,2.86,2.86,0,0,1,.31,1.37,3.54,3.54,0,0,1-.12.93,3.09,3.09,0,0,1-.34.84,2.76,2.76,0,0,1-.53.68,3.12,3.12,0,0,1-.61.47,3.67,3.67,0,0,1-.69.29c-.26.09-.6.18-1,.3l.6,1.16c.2.37.56,1,1.1,2l.89,1.55c0,.09.19.35.42.8H49l-1-2.33c-.17-.36-.38-.78-.62-1.27L46.3,35.21c-.1-.19-.25-.49-.44-.89a6.19,6.19,0,0,0,1.08.1,3.85,3.85,0,0,0,1.38-.24,2.08,2.08,0,0,0,1-.76,2.06,2.06,0,0,0,.33-1.12,1.58,1.58,0,0,0-.15-.69,1.16,1.16,0,0,0-.48-.53,1.91,1.91,0,0,0-.82-.29,7.57,7.57,0,0,0-.95-.06H45.36l-.15,3.61L45,41H42.35Z" transform="translate(-2.75 -2.24)"/><path class="cls-2" d="M55.4,41c.07-.65.14-1.5.21-2.54s.12-1.89.13-2.51L51.81,29h2.95c.26.61.64,1.38,1.15,2.31s.94,1.79,1.3,2.57l2.61-4.22q.13-.21.39-.66h2.93l-4.8,7.12-.11,2.23c0,.65-.06,1.54-.08,2.64H55.4Z" transform="translate(-2.75 -2.24)"/><path class="cls-2" d="M69.59,28.75a8.7,8.7,0,0,1,2.51.36,5.74,5.74,0,0,1,2.14,1.17,5.24,5.24,0,0,1,1.4,1.89,6.21,6.21,0,0,1,.48,2.53,7.45,7.45,0,0,1-.45,2.58,5.37,5.37,0,0,1-1.39,2.13A5.73,5.73,0,0,1,72,40.73a9.16,9.16,0,0,1-2.83.44,9.4,9.4,0,0,1-2.71-.4,5.87,5.87,0,0,1-2.23-1.24,4.89,4.89,0,0,1-1.34-1.94,6.78,6.78,0,0,1-.4-2.37,7.32,7.32,0,0,1,.5-2.67,5.27,5.27,0,0,1,1.49-2.11,6.71,6.71,0,0,1,2.29-1.26A9,9,0,0,1,69.59,28.75Zm-.14,1.87a4.3,4.3,0,0,0-2.32.61,3.87,3.87,0,0,0-1.48,1.67,5.32,5.32,0,0,0-.49,2.29,4.63,4.63,0,0,0,.48,2.1,3.22,3.22,0,0,0,1.47,1.47,4.74,4.74,0,0,0,3.8.21,3.54,3.54,0,0,0,1.37-.91,4.16,4.16,0,0,0,.87-1.47,5.75,5.75,0,0,0,.29-1.8,5.5,5.5,0,0,0-.26-1.67,3.56,3.56,0,0,0-.81-1.37,3.2,3.2,0,0,0-1.31-.85A4.58,4.58,0,0,0,69.45,30.62Z" transform="translate(-2.75 -2.24)"/><path class="cls-2" d="M77,41c.11-1,.2-2.22.26-3.53l.2-4.31c.07-1.55.1-2.94.1-4.15h3.27c.66,1.15,1.58,2.66,2.74,4.51s2.11,3.4,2.83,4.62l.32-8.16c0-.19,0-.52,0-1h2.48L89,32.18l-.27,5.52L88.64,41h-3.2l-.67-1.16L83.23,37.4c-.52-.79-1.16-1.81-1.94-3.06-.56-.91-1.05-1.71-1.45-2.39,0,.95-.12,2.71-.22,5.29,0,1-.08,2.28-.1,3.71H77Z" transform="translate(-2.75 -2.24)"/><path class="cls-1" d="M105.79,46.89H30.19a1,1,0,1,1,0-2h75.6a1,1,0,0,1,0,2Z" transform="translate(-2.75 -2.24)"/></svg>